HIERARCHY
ROOT Hips
{
	OFFSET	0.00	0.00	0.00
	CHANNELS 6 Xposition Yposition Zposition Zrotation Xrotation Yrotation
	JOINT Spine
	{
		OFFSET	 0.00	0.01	 0.00
		CHANNELS 3 Zrotation Xrotation Yrotation
		JOINT Spine1
		{
			OFFSET	 0.00	 2.45913012437421	 0.00
			CHANNELS 3 Zrotation Xrotation Yrotation
            JOINT Neck
            {
                OFFSET	 0.00	 2.48462964506057	 0.00
                CHANNELS 3 Zrotation Xrotation Yrotation
                JOINT Head
                {
                    OFFSET	 0.00	 0.927524780924562	 0.00
                    CHANNELS 3 Zrotation Xrotation Yrotation
                    End Site 
                    {
                        OFFSET	 0.00	 1.14999962169752	 0.00
                    }
                }
            }
			JOINT LeftShoulder
			{
				OFFSET	 0.00	 2.48462964506057	 0.00
				CHANNELS 3 Zrotation Xrotation Yrotation
				JOINT LeftUpArm
				{
					OFFSET	 0.00	 1.24881979654096	 0.00
					CHANNELS 3 Zrotation Xrotation Yrotation
					JOINT LeftForeArm
					{
						OFFSET	 0.00	2.59758046908119	 0.00
						CHANNELS 3 Zrotation Xrotation Yrotation
						JOINT LeftHand
						{
							OFFSET	 0.00	2.45542024364365	 0.00
							CHANNELS 3 Zrotation Xrotation Yrotation
							JOINT LeftHandThumb 
							{
								OFFSET	 0.00	0.00	 0.00
								CHANNELS 3 Zrotation Xrotation Yrotation
								End Site
								{
									OFFSET	 0.00	0.00	1.00000003353624
								}
							}
							JOINT L_Wrist_End 
							{
								OFFSET	 0.00	0.99999967115358	 0.00
								CHANNELS 3 Zrotation Xrotation Yrotation
								End Site 
								{
									OFFSET	 0.00	 0.00	 0.00
								}
							}
						}
					}
				}
			}
			JOINT RightShoulder
			{
				OFFSET	 0.00	 2.48462964506057	 0.00
				CHANNELS 3 Zrotation Xrotation Yrotation
				JOINT RightUpArm
				{
					OFFSET	 0.00	 1.24881979654096	 0.00
					CHANNELS 3 Zrotation Xrotation Yrotation
					JOINT RightForeArm
					{
						OFFSET	 0.00	2.59758046908119	 0.00
						CHANNELS 3 Zrotation Xrotation Yrotation
						JOINT RightHand
						{
							OFFSET	 0.00	2.45542024364365	 0.00
							CHANNELS 3 Zrotation Xrotation Yrotation
							JOINT RightHandThumb 
							{
								OFFSET	 0.00	0.00	 0.00
								CHANNELS 3 Zrotation Xrotation Yrotation
								End Site
								{
									OFFSET	 0.00	0.00	1.00000003353624
								}
							}
							JOINT R_Wrist_End 
							{
								OFFSET	 0.00	0.99999967115358	 0.00
								CHANNELS 3 Zrotation Xrotation Yrotation
								End Site 
								{
									OFFSET	 0.00	 0.00	 0.00
								}
							}
						}
					}
				}
			}
		}
	}
	JOINT LeftUpLeg
	{
		OFFSET	 1.2719394002717	 0.00	 0.00
		CHANNELS 3 Zrotation Xrotation Yrotation
		JOINT LeftLowLeg
		{
			OFFSET	 0.00	-4.3429100912261	 0.00
			CHANNELS 3 Zrotation Xrotation Yrotation
			JOINT LeftFoot
			{
				OFFSET	 0.00	-4.48767017425826	 0.00
				CHANNELS 3 Zrotation Xrotation Yrotation
				JOINT LeftToeBase
                {
                    OFFSET	 0.00	0.00	 1.51507020887566
                    CHANNELS 3 Zrotation Xrotation Yrotation
                    End Site 
                    {
                        OFFSET	 0.00	0.00	 0.75000010571191
                    }
                }
			}
		}
	}
	JOINT RightUpLeg
	{
		OFFSET	 -1.2719393604653	 0.00	 0.00
		CHANNELS 3 Zrotation Xrotation Yrotation
		JOINT RightLowLeg
		{
			OFFSET	 0.00	-4.3429100912261	 0.00
			CHANNELS 3 Zrotation Xrotation Yrotation
			JOINT RightFoot
			{
				OFFSET	 0.00	-4.48767017425826	 0.00
				CHANNELS 3 Zrotation Xrotation Yrotation
				JOINT RightToeBase
                {
                    OFFSET	 0.00	0.00	 1.51507020887566
                    CHANNELS 3 Zrotation Xrotation Yrotation
                    End Site 
                    {
                        OFFSET	 0.00	0.00	 0.749999965609858
                    }
                }   
			}
		}
	}
}
MOTION 
Frames:	15 
Frame Time: 0.02 
  4.938290100097657 -3.7165399169921876 9.658510131835937 -104.573 77.0662 159.18 4.00036 -2.32632 0.167669 10.9952 14.2032 0.740831 -1.52629 17.437 -13.2599 -1.38622 -51.9907 -26.3737 -107.673004 -2.33098 3.18157 -50.3614 21.831 50.1878 0.0 95.7828 0.0 25.8323 -17.6321 2.63419 0.0 0.0 0.0 0.0 0.0 0.0 109.7935 3.16907 -10.5266 30.2302 34.8193 30.2917 0.0 36.925 0.0 -1.336 -23.7571 68.1601 0.0 0.0 0.0 0.0 0.0 0.0 2.69367 -27.6757 8.18193 0.0 26.0803 0.0 -0.846932 5.8118296 -14.0531 0.0 -43.810402 0.0 2.49248 -23.7706 -18.852 0.0 41.1954 0.0 11.1591 7.27969 8.82933 0.0 -32.7169 0.0 
  4.923200073242188 -3.6298199462890626 9.64218017578125 -106.552 77.5298 160.651 4.28372 -2.38187 0.470079 10.7641 14.7684 0.953377 -1.63021 16.8485 -13.4528 -2.02565 -52.0469 -26.5354 -107.7361 -2.21963 3.45543 -50.1008 21.8428 49.762 0.0 95.6798 0.0 26.0145 -17.6356 2.38475 0.0 0.0 0.0 0.0 0.0 0.0 109.627396 3.4628 -10.2261 29.4857 34.9268 30.4264 0.0 37.2219 0.0 -1.79882 -23.8081 67.8206 0.0 0.0 0.0 0.0 0.0 0.0 2.06235 -27.5182 9.44479 0.0 25.8431 0.0 -0.571385 5.9719 -14.4055 0.0 -44.1997 0.0 2.29266 -22.2938 -20.3831 0.0 40.2661 0.0 6.58389 7.43473 8.77749 0.0 -35.362198 0.0 
  4.906289978027344 -3.539389953613281 9.6235498046875 -107.639 78.038 161.095 4.78161 -2.23973 0.772279 10.7037 15.2638 1.16646 -2.02781 16.4548 -13.3362 -2.72907 -51.9932 -26.5853 -107.7985 -2.15127 3.63652 -49.9949 21.8322 49.3294 0.0 95.4071 0.0 25.9156 -17.5814 2.20498 0.0 0.0 0.0 0.0 0.0 0.0 109.3193 3.69577 -10.0252 28.7464 35.2915 30.4642 0.0 37.4666 0.0 -2.92911 -23.6833 68.1843 0.0 0.0 0.0 0.0 0.0 0.0 1.67936 -27.6721 10.2591 0.0 26.3811 0.0 -0.396626 6.03553 -14.4919 0.0 -44.469 0.0 2.41358 -20.4501 -20.9397 0.0 37.5082 0.0 4.9217 5.21266 8.49318 0.0 -34.473198 0.0 
  4.883569946289063 -3.4456100463867188 9.60635986328125 -106.67 78.4268 159.241 5.66416 -1.91493 1.13255 10.8803 15.6866 1.4385 -2.28707 16.2305 -13.4271 -3.5734 -52.1666 -26.6636 -107.9292 -2.10272 3.65628 -49.9852 21.7465 48.8417 0.0 95.0782 0.0 25.7693 -17.2497 2.77638 0.0 0.0 0.0 0.0 0.0 0.0 108.9069 3.82286 -9.89008 28.1881 36.1476 31.1155 0.0 37.4814 0.0 -2.18687 -23.8855 68.8254 0.0 0.0 0.0 0.0 0.0 0.0 1.99271 -28.2668 11.2915 0.0 27.837 0.0 -0.580224 5.8466997 -14.5817 0.0 -44.5765 0.0 3.1148 -18.7549 -20.0187 0.0 34.1013 0.0 5.19033 3.4594002 8.23931 0.0 -32.1043 0.0 
  4.857650146484375 -3.3447900390625 9.588389892578125 -105.201 78.4889 156.607 6.7661 -1.68341 1.50511 11.149 16.0779 1.72765 -2.57493 16.0941 -13.4886 -4.59931 -52.7786 -26.6646 -108.0485 -2.08717 3.37803 -50.1248 21.4024 48.342 0.0 94.86 0.0 25.8781 -16.8761 3.9686 0.0 0.0 0.0 0.0 0.0 0.0 108.5086 3.94944 -9.84073 27.4665 37.2611 31.6313 0.0 37.6095 0.0 -2.81897 -23.8259 69.5552 0.0 0.0 0.0 0.0 0.0 0.0 2.73309 -29.3936 12.5899 0.0 29.8214 0.0 -0.9427 5.53271 -14.6617 0.0 -44.5663 0.0 3.89314 -18.2762 -18.1245 0.0 32.27 0.0 5.6861 2.8764 7.68302 0.0 -31.4448 0.0 
  4.83864013671875 -3.2414801025390627 9.567890014648437 -104.066 78.567 154.107 7.6681 -1.52277 1.71761 11.7683 16.6378 1.85387 -3.04211 16.1476 -13.1337 -5.18224 -53.4711 -26.5122 -108.2638 -2.15788 3.0824 -50.329 20.949 47.6187 0.0 94.7423 0.0 26.0931 -16.5729 4.12851 0.0 0.0 0.0 0.0 0.0 0.0 107.9234 4.30369 -9.66809 26.7982 38.4763 31.8607 0.0 37.5288 0.0 -3.14621 -24.8002 68.201 0.0 0.0 0.0 0.0 0.0 0.0 3.54073 -30.4471 13.9638 0.0 31.8103 0.0 -1.96895 5.31968 -15.0167 0.0 -44.5155 0.0 4.61566 -18.494 -15.2023 0.0 31.7602 0.0 6.02465 2.3497 6.19001 0.0 -30.7249 0.0 
  4.828139953613281 -3.135039978027344 9.54323974609375 -105.15 78.5738 153.78 8.27425 -1.65453 1.77312 12.2626 17.2473 1.81853 -3.16318 16.129 -12.8351 -5.57193 -54.119 -25.9833 -108.2901 -2.32354 2.78881 -50.72 20.4562 46.7664 0.0 94.6825 0.0 26.2512 -16.7674 3.16955 0.0 0.0 0.0 0.0 0.0 0.0 107.5141 4.71236 -9.3909 26.0849 39.7936 31.7085 0.0 37.4413 0.0 -4.44724 -24.8622 68.75 0.0 0.0 0.0 0.0 0.0 0.0 3.9921 -31.5064 15.1593 0.0 33.4246 0.0 -4.26297 5.137 -15.7298 0.0 -43.8351 0.0 4.76885 -19.1294 -12.7021 0.0 31.6708 0.0 6.70715 1.6683998 5.33999 0.0 -30.068 0.0 
  4.82625 -3.0305099487304688 9.521500244140626 -106.975 78.7855 154.336 8.47779 -1.83907 1.52275 13.0801 18.0135 1.46135 -3.34228 16.0128 -12.2535 -5.59596 -54.5564 -25.2428 -108.456604 -2.57631 2.52162 -51.0759 20.0437 45.8278 0.0 94.6367 0.0 26.4758 -17.1391 2.27702 0.0 0.0 0.0 0.0 0.0 0.0 107.178696 5.23894 -9.11599 25.1629 41.2643 31.3761 0.0 37.0797 0.0 -5.88149 -25.1183 66.2529 0.0 0.0 0.0 0.0 0.0 0.0 4.16059 -32.2101 15.9559 0.0 34.6241 0.0 -7.22114 5.26313 -16.8161 0.0 -43.735397 0.0 4.53648 -19.5136 -10.9918 0.0 31.4745 0.0 7.12693 0.9790001 4.84432 0.0 -29.8116 0.0 
  4.826709899902344 -2.9260101318359375 9.506439819335938 -107.598 79.0125 153.85 8.69905 -1.8236 1.15196 14.1653 18.5152 1.01732 -3.35494 16.0745 -11.8533 -5.55074 -54.9896 -24.5454 -108.8085 -2.68006 2.25222 -51.3172 19.6106 45.036 0.0 94.5841 0.0 26.9245 -17.3223 1.44376 0.0 0.0 0.0 0.0 0.0 0.0 106.8575 5.73826 -8.86879 24.3782 42.6141 31.0561 0.0 36.5719 0.0 -6.94979 -25.4652 64.4407 0.0 0.0 0.0 0.0 0.0 0.0 4.54388 -32.8346 16.2721 0.0 35.8201 0.0 -10.3586 5.91016 -18.5627 0.0 -44.207 0.0 4.2505 -19.5343 -10.4771 0.0 30.8777 0.0 7.35589 0.70040035 5.09801 0.0 -29.1896 0.0 
  4.829209899902343 -2.8123699951171877 9.500170288085938 -107.307 79.0425 152.651 9.24973 -1.68611 0.646775 15.0405 18.6953 0.449684 -2.96803 16.1267 -11.6585 -5.54881 -55.4228 -23.4344 -109.1305 -2.64406 2.07352 -51.4327 19.1491 44.1989 0.0 94.5902 0.0 27.5689 -17.1034 1.49688 0.0 0.0 0.0 0.0 0.0 0.0 106.5902 6.19806 -8.60077 24.0205 44.012 30.4394 0.0 36.159 0.0 -7.06451 -26.0271 64.5796 0.0 0.0 0.0 0.0 0.0 0.0 4.92998 -33.7458 15.6022 0.0 37.1637 0.0 -12.5267 6.9882097 -20.3378 0.0 -45.0524 0.0 3.90375 -19.9429 -10.2669 0.0 30.7036 0.0 7.77259 1.1155996 5.83161 0.0 -28.7477 0.0 
  4.842680053710938 -2.6966598510742186 9.50447021484375 -107.405 79.2215 151.745 9.72956 -1.45135 0.165458 15.7879 18.8677 -0.0961277 -2.59453 16.1688 -11.471 -5.40326 -55.8507 -22.4705 -109.4924 -2.57332 2.22613 -51.3418 19.1273 43.525 0.0 94.5665 0.0 28.6916 -16.9185 1.25998 0.0 0.0 0.0 0.0 0.0 0.0 106.3202 6.53277 -8.37952 24.0166 45.4617 29.9994 0.0 35.6963 0.0 -7.9235 -26.5397 62.3823 0.0 0.0 0.0 0.0 0.0 0.0 5.02746 -34.3877 14.3434 0.0 38.5684 0.0 -12.9542 7.66103 -20.881 0.0 -45.4571 0.0 3.36878 -20.7002 -9.62252 0.0 31.3216 0.0 7.95114 1.9548998 6.27617 0.0 -29.007 0.0 
  4.866799926757812 -2.5832000732421876 9.515380249023437 -109.08 79.5738 152.164 9.87493 -1.23268 -0.178608 16.4406 18.9618 -0.466882 -2.06835 16.5667 -11.5369 -5.27809 -56.4975 -21.6878 -109.4787 -2.33161 2.43847 -51.6823 19.2534 43.2843 0.0 94.2585 0.0 29.8034 -17.332 0.136157 0.0 0.0 0.0 0.0 0.0 0.0 106.013 6.63034 -8.08841 24.6514 46.9021 29.5101 0.0 35.2464 0.0 -8.77287 -27.0905 59.9935 0.0 0.0 0.0 0.0 0.0 0.0 4.84948 -34.7118 13.0639 0.0 40.2565 0.0 -12.4333 7.33157 -19.3119 0.0 -45.274597 0.0 2.62175 -21.3682 -8.7361 0.0 31.7987 0.0 8.11307 2.7438002 6.5644 0.0 -29.2756 0.0 
  4.897850036621094 -2.4763999938964845 9.531610107421875 -111.432 79.9286 152.868 9.6818 -1.22306 -0.388218 17.3698 19.3705 -0.728509 -1.75824 16.749 -11.6496 -5.2951 -56.8966 -21.31 -109.3929 -2.10753 2.09596 -52.2824 19.2641 43.7097 0.0 93.9364 0.0 30.6784 -18.5175 -1.55438 0.0 0.0 0.0 0.0 0.0 0.0 105.645004 6.9531 -7.62999 24.9203 47.3589 27.4827 0.0 35.5353 0.0 -8.94692 -27.6958 59.8027 0.0 0.0 0.0 0.0 0.0 0.0 5.05647 -34.7373 12.5904 0.0 42.2875 0.0 -11.8434 6.04714 -16.8501 0.0 -44.433502 0.0 2.05356 -21.6317 -7.44645 0.0 31.4023 0.0 8.37292 3.5040998 6.78181 0.0 -28.844799 0.0 
  4.932319946289063 -2.370469970703125 9.552490234375 -113.702 80.1865 153.285 9.56919 -1.18852 -0.460655 17.9647 19.6403 -0.833778 -0.936977 16.8369 -12.1496 -5.43422 -57.1032 -20.5145 -109.149704 -1.72569 1.44559 -52.8509 19.0236 44.4747 0.0 93.6187 0.0 31.2245 -19.68 -3.67445 0.0 0.0 0.0 0.0 0.0 0.0 104.7434 7.07397 -5.40067 28.8884 47.5535 24.1908 0.0 35.1662 0.0 -11.0062 -27.7647 56.2754 0.0 0.0 0.0 0.0 0.0 0.0 5.69366 -34.5903 12.6811 0.0 44.4426 0.0 -10.9214 4.7874002 -14.4826 0.0 -42.763 0.0 1.71115 -21.5252 -5.87629 0.0 30.0887 0.0 8.89736 4.5491 6.9894 0.0 -28.7886 0.0 
  4.971099853515625 -2.26427001953125 9.576409912109375 -116.006 80.3045 153.714 9.46112 -1.0748 -0.602205 18.4413 19.4942 -0.926374 -0.306217 17.0575 -12.3954 -5.34174 -57.1804 -19.7223 -109.0411 -1.5173 1.20379 -53.139 19.1239 45.1062 0.0 93.2341 0.0 31.0461 -20.6064 -5.76486 0.0 0.0 0.0 0.0 0.0 0.0 105.231 6.5979 -6.13303 28.013 49.4728 22.8996 0.0 34.1657 0.0 -11.5254 -27.46 54.2665 0.0 0.0 0.0 0.0 0.0 0.0 6.48863 -34.3353 12.6832 0.0 46.4594 0.0 -9.53368 3.7479 -12.369 0.0 -42.7297 0.0 1.48196 -21.4501 -3.99883 0.0 28.525 0.0 9.43178 5.67494 6.9261 0.0 -28.4335 0.0 
